# xmcd
#
# Track frame offsets: 
#        150
#        6481
#        24338
#        37156
#        48785
#        68635
#        106742
#        154701
#        164365
#        174944
#        192992
#        214213
#        216672
#        227885
#        242892
#        263031
#
# Disc length: 3625 seconds
#
# Revision: 0
# Processed by: cddbd v1.5.2PL0 Copyright (c) Steve Scherf et al.
# Submitted via: ExactAudioCopy v0.95b3
#
DISCID=dd0e2710
DTITLE=The Who  - The Complete Amsterdam 1969 Remastered - Disc 1
DYEAR=1900
DGENRE=
TTITLE0="House announcement"
TTITLE1=Heaven And Hell
TTITLE2=I Can't Explain
TTITLE3=Fortune Teller
TTITLE4=Tattoo
TTITLE5=Young Man Blues
TTITLE6=A Quick One, While He's Away
TTITLE7=Substitute
TTITLE8=Happy Jack
TTITLE9=I'm A Boy
TTITLE10=Overture
TTITLE11=It's A Boy
TTITLE12=1921
TTITLE13=Amazing Journey
TTITLE14=Sparks
TTITLE15=Eyesight To The Blind (The Hawker)
EXTD=
EXTT0=
EXTT1=
EXTT2=
EXTT3=
EXTT4=
EXTT5=
EXTT6=
EXTT7=
EXTT8=
EXTT9=
EXTT10=
EXTT11=
EXTT12=
EXTT13=
EXTT14=
EXTT15=
PLAYORDER=
